<?xml version="1.0" standalone="no"?><!DOCTYPE svg PUBLIC "-//W3C//DTD SVG 1.1//EN" "http://www.w3.org/Graphics/SVG/1.1/DTD/svg11.dtd"><svg height="1024" node-id="1" sillyvg="true" template-height="1024" template-width="1024" version="1.1" viewBox="0 0 1024 1024" width="1024" xmlns="http://www.w3.org/2000/svg" xmlns:xlink="http://www.w3.org/1999/xlink"><defs node-id="43"><linearGradient gradientUnits="objectBoundingBox" id="linearGradient-1" node-id="3" spreadMethod="pad" x1="1.0037295" x2="-0.046424918" y1="0.8108553" y2="0.16976193"><stop offset="0" stop-color="#aeb7c4"></stop><stop offset="1" stop-color="#cfd5e0"></stop></linearGradient><linearGradient gradientUnits="objectBoundingBox" id="linearGradient-2" node-id="6" spreadMethod="pad" x1="0.9824821" x2="0.05635786" y1="0.89788246" y2="0.06672812"><stop offset="0" stop-color="#dce2ec"></stop><stop offset="1" stop-color="#eef1f5"></stop></linearGradient><linearGradient gradientUnits="objectBoundingBox" id="linearGradient-3" node-id="9" spreadMethod="pad" x1="0.49968413" x2="0.49968413" y1="-0.023164557" y2="1.0070374"><stop offset="0" stop-color="#fdfeff"></stop><stop offset="1" stop-color="#f3f5f8"></stop></linearGradient><linearGradient gradientUnits="objectBoundingBox" id="linearGradient-4" node-id="12" spreadMethod="pad" x1="0.49968413" x2="0.49968413" y1="-0.023164557" y2="1.0070374"><stop offset="0" stop-color="#fdfeff"></stop><stop offset="1" stop-color="#f3f5f8"></stop></linearGradient><linearGradient gradientUnits="objectBoundingBox" id="linearGradient-5" node-id="15" spreadMethod="pad" x1="0.99959886" x2="0.040618982" y1="0.89788246" y2="0.06672812"><stop offset="0" stop-color="#dce2ec"></stop><stop offset="1" stop-color="#eef1f5"></stop></linearGradient><linearGradient gradientUnits="objectBoundingBox" id="linearGradient-6" node-id="18" spreadMethod="pad" x1="1.0037295" x2="-0.046424918" y1="0.8108553" y2="0.16976193"><stop offset="0" stop-color="#aeb7c4"></stop><stop offset="1" stop-color="#cfd5e0"></stop></linearGradient><linearGradient gradientUnits="objectBoundingBox" id="linearGradient-7" node-id="21" spreadMethod="pad" x1="0.49968413" x2="0.49968413" y1="-0.023164557" y2="1.0070374"><stop offset="0" stop-color="#fdfeff"></stop><stop offset="1" stop-color="#f3f5f8"></stop></linearGradient></defs><path d="M 0.00 0.00 L 1024.00 0.00 L 1024.00 1024.00 L 0.00 1024.00 Z" fill="none" id="bg" node-id="25" stroke="none" target-height="1024" target-width="1024" target-x="0" target-y="0"></path><g node-id="86"><path d="M 64.00 64.00 L 960.00 64.00 L 960.00 960.00 L 64.00 960.00 Z" fill="none" group-id="1" id="矩形" node-id="27" stroke="none" target-height="896" target-width="896" target-x="64" target-y="64"></path><g node-id="87"><path d="M 675.69 405.07 L 673.62 413.60 L 671.26 421.97 L 668.61 430.17 L 665.68 438.27 L 662.52 446.13 L 659.15 453.75 L 654.32 462.55 L 649.16 471.00 L 643.65 479.12 L 637.80 486.92 L 631.56 494.44 L 625.01 501.57 L 618.14 508.31 L 610.94 514.69 L 603.41 520.67 L 595.59 526.21 L 587.45 531.33 L 579.00 536.01 L 569.95 540.52 L 560.69 544.49 L 551.20 547.92 L 541.46 550.82 L 531.59 553.15 L 521.56 554.91 L 511.36 556.10 L 500.96 556.72 L 490.59 556.74 L 480.11 556.16 L 469.50 554.96 L 458.76 553.13 L 448.18 550.47 L 437.96 547.27 L 428.08 543.53 L 418.52 539.24 L 409.19 534.40 L 400.24 529.10 L 391.67 523.33 L 383.44 517.09 L 375.56 510.39 L 368.11 503.32 L 361.06 495.85 L 354.40 487.98 L 348.19 479.76 L 342.43 471.23 L 337.14 462.39 L 332.29 453.22 L 327.95 443.81 L 324.11 434.16 L 320.79 424.27 L 317.97 414.12 L 315.72 403.85 L 314.03 393.42 L 312.90 382.81 L 312.34 372.00 L 312.38 361.21 L 313.04 350.32 L 314.33 339.31 L 316.27 328.15 L 318.66 317.82 L 321.50 307.84 L 324.79 298.19 L 328.52 288.86 L 332.69 279.82 L 337.35 270.94 L 342.38 262.44 L 347.76 254.30 L 353.52 246.50 L 359.64 239.05 L 366.17 231.89 L 372.97 225.14 L 380.07 218.79 L 387.46 212.84 L 395.15 207.27 L 403.13 202.10 L 411.32 197.38 L 419.72 193.12 L 428.35 189.29 L 437.23 185.90 L 446.25 183.00 L 455.41 180.59 L 464.74 178.69 L 474.23 177.28 L 483.90 176.37 L 493.54 176.00 L 503.28 176.18 L 513.12 176.91 L 523.09 178.21 L 533.19 180.10 L 543.82 182.81 L 554.12 186.06 L 564.10 189.87 L 573.80 194.23 L 583.21 199.14 L 592.33 204.57 L 601.17 210.51 L 609.73 216.95 L 618.03 223.93 L 626.07 231.45 L 632.40 238.53 L 638.33 245.85 L 643.86 253.39 L 649.01 261.17 L 653.77 269.20 L 658.16 277.46 L 662.14 285.87 L 665.70 294.44 L 668.87 303.17 L 671.64 312.09 L 673.98 321.11 L 675.90 330.21 L 677.40 339.40 L 678.47 348.68 L 679.12 358.06 L 679.33 367.44 L 679.09 376.82 L 678.41 386.21 L 677.28 395.63 L 675.69 405.07 Z" fill="url(#linearGradient-1)" fill-rule="nonzero" group-id="1,2" id="Path" node-id="29" stroke="none" target-height="380.74" target-width="366.99002" target-x="312.34" target-y="176"></path><path d="M 455.30 644.47 L 454.79 644.61 L 454.47 644.90 L 454.15 645.19 L 453.64 645.33 L 376.67 682.75 L 374.39 683.66 L 372.17 684.08 L 369.96 684.03 L 367.80 683.56 L 365.75 682.71 L 363.80 681.45 L 362.08 679.89 L 360.58 678.01 L 359.30 675.77 L 358.43 673.37 L 358.03 671.03 L 358.07 668.71 L 358.52 666.43 L 359.33 664.29 L 360.52 662.25 L 362.02 660.42 L 363.81 658.84 L 365.92 657.49 L 418.88 632.24 L 402.33 626.19 L 428.81 546.96 L 370.89 513.86 L 389.92 434.70 L 310.47 415.48 L 336.95 350.21 L 321.23 332.80 L 97.79 440.74 L 93.53 443.03 L 89.56 445.60 L 85.85 448.46 L 82.39 451.60 L 78.18 456.20 L 74.50 461.16 L 71.32 466.50 L 68.69 472.14 L 66.63 477.99 L 65.14 484.07 L 64.26 490.28 L 64.01 496.56 L 64.40 502.93 L 65.11 507.66 L 66.22 512.36 L 67.73 517.03 L 69.65 521.70 L 195.44 812.43 L 197.62 816.94 L 200.07 821.13 L 202.78 825.03 L 205.75 828.64 L 209.01 832.04 L 212.46 835.10 L 216.09 837.85 L 219.91 840.29 L 225.28 843.07 L 230.84 845.24 L 236.61 846.80 L 241.04 847.56 L 245.49 847.94 L 249.99 847.96 L 254.55 847.59 L 259.03 846.84 L 263.50 845.68 L 267.95 844.10 L 272.40 842.08 L 493.36 735.86 L 506.60 661.88 L 455.30 644.47 Z" fill="url(#linearGradient-2)" fill-rule="nonzero" group-id="1,2" id="Path" node-id="30" stroke="none" target-height="515.16003" target-width="442.59" target-x="64.01" target-y="332.8"></path><path d="M 356.77 672.92 L 358.03 674.80 L 359.53 676.40 L 361.27 677.75 L 363.20 678.80 L 365.24 679.53 L 367.42 679.93 L 369.63 679.97 L 371.85 679.62 L 374.12 678.85 L 450.97 647.06 L 451.48 646.94 L 451.80 646.69 L 452.12 646.45 L 452.63 646.33 L 416.26 635.20 L 363.38 656.66 L 361.25 658.04 L 359.47 659.56 L 357.99 661.21 L 356.79 663.06 L 355.98 664.95 L 355.54 666.90 L 355.50 668.88 L 355.90 670.87 L 356.77 672.92 Z" fill="url(#linearGradient-3)" fill-rule="nonzero" group-id="1,2" id="Path" node-id="31" stroke="none" target-height="44.76996" target-width="97.130005" target-x="355.5" target-y="635.2"></path><path d="M 325.63 702.75 L 245.40 734.84 L 243.03 735.62 L 240.71 735.97 L 238.40 735.93 L 236.12 735.53 L 233.99 734.79 L 231.98 733.73 L 230.16 732.37 L 228.60 730.75 L 227.28 728.87 L 226.37 726.79 L 225.96 724.79 L 226.00 722.81 L 226.47 720.87 L 227.31 719.03 L 228.56 717.26 L 230.10 715.72 L 231.96 714.38 L 234.19 713.22 L 314.41 681.19 L 316.78 680.40 L 319.10 680.03 L 321.41 680.06 L 323.69 680.47 L 325.82 681.20 L 327.83 682.27 L 329.65 683.63 L 331.21 685.23 L 332.53 687.10 L 333.44 689.17 L 333.85 691.17 L 333.80 693.16 L 333.34 695.10 L 332.50 696.94 L 331.25 698.70 L 329.71 700.24 L 327.85 701.59 L 325.63 702.75 Z" fill="url(#linearGradient-4)" fill-rule="nonzero" group-id="1,2" id="Path" node-id="32" stroke="none" target-height="55.93994" target-width="107.89" target-x="225.96" target-y="680.03"></path><path d="M 904.67 754.32 L 959.03 442.96 L 959.70 437.95 L 959.99 433.05 L 959.90 428.25 L 959.43 423.53 L 958.26 417.31 L 956.50 411.38 L 954.17 405.70 L 951.27 400.29 L 947.89 395.27 L 944.02 390.62 L 940.81 387.41 L 937.37 384.48 L 933.70 381.83 L 929.79 379.45 L 925.71 377.41 L 921.44 375.71 L 916.97 374.35 L 912.27 373.34 L 632.49 321.60 L 636.14 345.73 L 579.32 383.06 L 634.48 445.23 L 574.90 497.54 L 604.16 558.15 L 538.99 606.70 L 549.89 621.10 L 575.46 625.72 L 577.74 626.31 L 579.76 627.27 L 581.55 628.61 L 583.09 630.26 L 584.34 632.14 L 585.30 634.27 L 585.91 636.53 L 586.15 638.87 L 586.02 641.33 L 585.39 643.47 L 584.48 645.43 L 583.30 647.22 L 581.88 648.83 L 580.32 650.15 L 578.59 651.19 L 576.73 651.93 L 574.83 652.28 L 572.85 652.26 L 605.61 697.54 L 554.89 748.92 L 837.28 802.15 L 842.11 802.87 L 846.84 803.18 L 851.48 803.11 L 856.04 802.66 L 860.57 801.84 L 864.95 800.69 L 869.19 799.20 L 873.30 797.38 L 878.53 794.45 L 883.40 791.01 L 887.92 787.05 L 891.03 783.78 L 893.87 780.26 L 896.44 776.49 L 898.76 772.44 L 900.73 768.25 L 902.38 763.85 L 903.70 759.21 L 904.67 754.32 Z" fill="url(#linearGradient-5)" fill-rule="nonzero" group-id="1,2" id="Path" node-id="33" stroke="none" target-height="481.58" target-width="421" target-x="538.99" target-y="321.6"></path><path d="M 716.77 702.24 L 626.22 685.98 L 623.73 685.35 L 621.53 684.33 L 619.58 682.90 L 617.89 681.15 L 616.54 679.16 L 615.49 676.90 L 614.83 674.51 L 614.56 672.02 L 614.71 669.41 L 615.33 666.90 L 616.34 664.68 L 617.74 662.70 L 619.47 661.00 L 621.44 659.63 L 623.67 658.57 L 626.05 657.89 L 628.51 657.61 L 631.09 657.74 L 721.64 674.08 L 724.12 674.69 L 726.32 675.69 L 728.28 677.10 L 729.96 678.84 L 731.32 680.83 L 732.36 683.08 L 733.03 685.48 L 733.29 687.96 L 733.15 690.57 L 732.53 693.09 L 731.52 695.31 L 730.12 697.29 L 728.38 699.01 L 726.41 700.38 L 724.18 701.44 L 721.81 702.12 L 719.35 702.39 L 716.77 702.24 Z" fill="#f5f9ff" fill-rule="nonzero" group-id="1,2" id="Path" node-id="34" stroke="none" target-height="44.78003" target-width="118.72998" target-x="614.56" target-y="657.61"></path><path d="M 835.52 713.24 L 744.97 696.98 L 742.48 696.38 L 740.28 695.38 L 738.33 693.98 L 736.64 692.24 L 735.29 690.27 L 734.24 688.02 L 733.58 685.64 L 733.31 683.17 L 733.46 680.57 L 734.08 678.07 L 735.08 675.85 L 736.49 673.88 L 738.22 672.18 L 740.19 670.81 L 742.42 669.75 L 744.79 669.08 L 747.25 668.81 L 749.83 668.96 L 840.38 685.14 L 842.87 685.77 L 845.07 686.79 L 847.03 688.20 L 848.71 689.95 L 850.07 691.93 L 851.11 694.17 L 851.77 696.56 L 852.04 699.03 L 851.89 701.63 L 851.29 704.16 L 850.31 706.43 L 848.96 708.49 L 847.26 710.28 L 845.33 711.70 L 843.11 712.78 L 840.75 713.42 L 838.24 713.59 L 835.52 713.24 Z" fill="#f5f9ff" fill-rule="nonzero" group-id="1,2" id="Path" node-id="35" stroke="none" target-height="44.78003" target-width="118.72998" target-x="733.31" target-y="668.81"></path><path d="M 905.17 510.71 L 905.89 504.58 L 905.99 498.61 L 905.47 492.78 L 904.36 487.02 L 902.72 481.52 L 900.55 476.24 L 897.86 471.21 L 894.71 466.52 L 891.11 462.17 L 887.08 458.21 L 882.68 454.70 L 877.88 451.63 L 872.78 449.10 L 867.36 447.12 L 861.58 445.69 L 857.14 445.06 L 852.79 444.81 L 848.51 444.91 L 844.31 445.37 L 838.77 446.52 L 833.47 448.22 L 828.37 450.48 L 823.53 453.27 L 819.02 456.52 L 814.81 460.28 L 811.00 464.44 L 807.62 469.00 L 804.65 473.99 L 802.21 479.27 L 800.30 484.89 L 798.93 490.89 L 798.20 497.02 L 798.11 502.99 L 798.63 508.82 L 799.73 514.58 L 801.37 520.08 L 803.55 525.36 L 806.24 530.39 L 809.38 535.08 L 812.99 539.43 L 817.01 543.39 L 821.41 546.90 L 826.21 549.97 L 831.31 552.50 L 836.73 554.48 L 842.52 555.91 L 846.96 556.54 L 851.31 556.79 L 855.58 556.69 L 859.79 556.23 L 865.32 555.08 L 870.63 553.38 L 875.72 551.12 L 880.56 548.33 L 885.08 545.08 L 889.29 541.32 L 893.09 537.16 L 896.48 532.60 L 899.45 527.61 L 901.88 522.33 L 903.79 516.71 L 905.17 510.71 Z" fill="url(#linearGradient-6)" fill-rule="nonzero" group-id="1,2" id="Path" node-id="36" stroke="none" target-height="111.97998" target-width="107.880005" target-x="798.11" target-y="444.81"></path><path d="M 840.40 488.25 L 841.12 482.13 L 841.22 476.17 L 840.70 470.35 L 839.59 464.60 L 837.95 459.11 L 835.78 453.83 L 833.09 448.80 L 829.95 444.12 L 826.34 439.77 L 822.32 435.81 L 817.91 432.30 L 813.11 429.24 L 808.01 426.70 L 802.59 424.72 L 796.81 423.30 L 791.24 422.57 L 785.83 422.42 L 780.56 422.82 L 775.38 423.76 L 770.31 425.23 L 765.48 427.16 L 760.87 429.55 L 756.46 432.42 L 752.35 435.69 L 748.58 439.34 L 745.15 443.37 L 742.04 447.81 L 739.39 452.50 L 737.19 457.50 L 735.45 462.82 L 734.16 468.50 L 733.43 474.63 L 733.34 480.60 L 733.85 486.44 L 734.96 492.19 L 736.60 497.70 L 738.78 502.97 L 741.47 508.01 L 744.61 512.69 L 748.21 517.05 L 752.24 521.01 L 756.64 524.52 L 761.44 527.59 L 766.54 530.12 L 771.96 532.10 L 777.74 533.53 L 783.31 534.24 L 788.72 534.38 L 793.99 533.97 L 799.17 533.01 L 804.24 531.54 L 809.08 529.61 L 813.69 527.21 L 818.10 524.34 L 822.21 521.06 L 825.97 517.41 L 829.40 513.38 L 832.51 508.94 L 835.16 504.24 L 837.36 499.25 L 839.11 493.93 L 840.40 488.25 Z" fill="#f5f9ff" fill-rule="nonzero" group-id="1,2" id="Path" node-id="37" stroke="none" target-height="111.95999" target-width="107.879944" target-x="733.34" target-y="422.42"></path><path d="M 592.79 652.37 L 592.95 648.92 L 592.66 645.63 L 591.94 642.47 L 590.78 639.45 L 589.30 636.82 L 587.48 634.53 L 585.31 632.63 L 582.91 631.29 L 580.23 630.47 L 549.78 624.00 L 577.57 668.80 L 580.05 668.37 L 582.44 667.57 L 584.77 666.38 L 586.88 664.85 L 588.74 662.99 L 590.36 660.77 L 591.59 658.32 L 592.40 655.54 L 592.79 652.37 Z" fill="#d5ddea" fill-rule="nonzero" group-id="1,2" id="Path" node-id="38" stroke="none" target-height="44.799988" target-width="43.169983" target-x="549.78" target-y="624"></path><path d="M 490.41 254.40 L 486.49 254.70 L 482.83 255.51 L 479.38 256.82 L 476.14 258.61 L 473.22 260.79 L 470.59 263.37 L 468.33 266.28 L 466.46 269.48 L 464.99 272.98 L 463.99 276.65 L 463.49 280.50 L 463.50 284.58 L 472.27 382.49 L 472.76 385.68 L 473.72 388.61 L 475.15 391.33 L 477.01 393.79 L 479.18 395.88 L 481.68 397.61 L 484.42 398.91 L 487.31 399.71 L 490.41 400.00 L 493.51 399.71 L 496.40 398.91 L 499.14 397.61 L 501.64 395.88 L 503.80 393.79 L 505.66 391.33 L 507.10 388.61 L 508.06 385.68 L 508.54 382.49 L 517.32 284.58 L 517.33 280.36 L 516.82 276.42 L 515.83 272.73 L 514.35 269.20 L 512.49 266.02 L 510.23 263.15 L 507.60 260.61 L 504.68 258.48 L 501.44 256.74 L 498.00 255.47 L 494.33 254.68 L 490.41 254.40 Z" fill="#f5f9ff" fill-rule="nonzero" group-id="1,2" id="Path" node-id="39" stroke="none" target-height="145.6" target-width="53.840027" target-x="463.49" target-y="254.4"></path><path d="M 495.81 433.60 L 492.80 433.82 L 490.00 434.41 L 487.37 435.35 L 484.88 436.65 L 481.86 438.86 L 479.29 441.52 L 477.15 444.67 L 475.90 447.24 L 475.00 449.97 L 474.43 452.88 L 474.22 456.00 L 474.43 459.12 L 475.00 462.03 L 475.90 464.76 L 477.15 467.33 L 479.29 470.48 L 481.86 473.14 L 484.88 475.35 L 487.37 476.65 L 490.00 477.59 L 492.80 478.18 L 495.81 478.40 L 498.81 478.18 L 501.61 477.59 L 504.24 476.65 L 506.73 475.35 L 509.75 473.14 L 512.32 470.48 L 514.46 467.33 L 515.71 464.76 L 516.62 462.03 L 517.18 459.12 L 517.40 456.00 L 517.18 452.88 L 516.62 449.97 L 515.71 447.24 L 514.46 444.67 L 512.32 441.52 L 509.75 438.86 L 506.73 436.65 L 504.24 435.35 L 501.61 434.41 L 498.81 433.82 L 495.81 433.60 Z" fill="#f5f9ff" fill-rule="nonzero" group-id="1,2" id="Path" node-id="40" stroke="none" target-height="44.799988" target-width="43.180023" target-x="474.22" target-y="433.6"></path><path d="M 262.99 565.29 L 183.71 600.81 L 181.76 601.42 L 179.76 601.60 L 177.66 601.37 L 175.63 600.76 L 173.68 599.80 L 171.79 598.48 L 170.13 596.88 L 168.71 595.01 L 167.53 592.83 L 140.85 531.84 L 140.05 529.50 L 139.64 527.18 L 139.59 524.86 L 139.89 522.56 L 140.50 520.45 L 141.42 518.52 L 142.66 516.78 L 144.15 515.40 L 145.91 514.34 L 224.48 479.19 L 226.44 478.58 L 228.44 478.40 L 230.54 478.63 L 232.57 479.24 L 234.52 480.20 L 236.41 481.52 L 238.07 483.12 L 239.48 484.99 L 240.66 487.17 L 267.34 548.16 L 268.36 550.42 L 268.94 552.67 L 269.11 554.93 L 268.90 557.19 L 268.34 559.26 L 267.45 561.18 L 266.24 562.89 L 264.76 564.25 L 262.99 565.29 Z" fill="url(#linearGradient-7)" fill-rule="nonzero" group-id="1,2" id="Path" node-id="41" stroke="none" target-height="123.19998" target-width="129.51999" target-x="139.59" target-y="478.4"></path></g></g></svg>